<svg width="16" height="16" viewBox="0 0 16 16" fill="none" xmlns="http://www.w3.org/2000/svg">
<path d="M10.9166 2.16656C11.6895 2.16887 12.43 2.47692 12.9766 3.02345C13.5231 3.56997 13.8311 4.31054 13.8334 5.08344V10.9166C13.8311 11.6895 13.5231 12.43 12.9766 12.9766C12.43 13.5231 11.6895 13.8311 10.9166 13.8334H5.08344C4.31054 13.8311 3.56997 13.5231 3.02345 12.9766C2.47692 12.43 2.16887 11.6895 2.16656 10.9166V5.08344C2.16887 4.31054 2.47692 3.56997 3.02345 3.02345C3.56997 2.47692 4.31054 2.16887 5.08344 2.16656H10.9166ZM10.9166 1H5.08344C2.8375 1 1 2.8375 1 5.08344V10.9166C1 13.1625 2.8375 15 5.08344 15H10.9166C13.1625 15 15 13.1625 15 10.9166V5.08344C15 2.8375 13.1625 1 10.9166 1Z" fill="white"/>
<path d="M11.7916 5.0835C11.6185 5.0835 11.4493 5.03218 11.3054 4.93603C11.1615 4.83989 11.0494 4.70323 10.9832 4.54334C10.9169 4.38346 10.8996 4.20753 10.9334 4.03779C10.9671 3.86806 11.0505 3.71215 11.1728 3.58978C11.2952 3.46741 11.4511 3.38407 11.6209 3.35031C11.7906 3.31655 11.9665 3.33388 12.1264 3.4001C12.2863 3.46633 12.423 3.57848 12.5191 3.72237C12.6152 3.86627 12.6666 4.03544 12.6666 4.2085C12.6668 4.32347 12.6443 4.43737 12.6005 4.54364C12.5566 4.64991 12.4921 4.74647 12.4108 4.82777C12.3295 4.90907 12.233 4.97351 12.1267 5.01739C12.0204 5.06128 11.9065 5.08374 11.7916 5.0835ZM8 5.66662C8.46151 5.66662 8.91266 5.80348 9.29639 6.05988C9.68012 6.31628 9.9792 6.68071 10.1558 7.10709C10.3324 7.53347 10.3786 8.00265 10.2886 8.45529C10.1986 8.90793 9.97633 9.32371 9.64999 9.65005C9.32365 9.97638 8.90787 10.1986 8.45523 10.2887C8.00259 10.3787 7.53341 10.3325 7.10703 10.1559C6.68065 9.97926 6.31622 9.68018 6.05982 9.29645C5.80342 8.91272 5.66656 8.46157 5.66656 8.00006C5.66723 7.3814 5.91328 6.78826 6.35074 6.3508C6.7882 5.91334 7.38134 5.66728 8 5.66662ZM8 4.50006C7.30777 4.50006 6.63108 4.70533 6.05551 5.08992C5.47993 5.4745 5.03133 6.02113 4.76642 6.66067C4.50152 7.30021 4.4322 8.00394 4.56725 8.68288C4.7023 9.36181 5.03564 9.98545 5.52513 10.4749C6.01461 10.9644 6.63825 11.2978 7.31719 11.4328C7.99612 11.5679 8.69985 11.4985 9.33939 11.2336C9.97893 10.9687 10.5256 10.5201 10.9101 9.94455C11.2947 9.36898 11.5 8.69229 11.5 8.00006C11.5 7.0718 11.1313 6.18156 10.4749 5.52519C9.8185 4.86881 8.92826 4.50006 8 4.50006Z" fill="white"/>
</svg>
