<svg width="153" height="28" viewBox="0 0 153 28" fill="none" xmlns="http://www.w3.org/2000/svg">
<path d="M14.4331 0.0409994H16.1558C21.9527 0.0409994 25.398 2.5908 26.4917 7.6904C26.8335 9.2353 27.0044 11.04 27.0044 13.1044C27.0044 15.1689 26.7857 17.1376 26.3482 19.0107C25.9244 20.8837 25.2681 22.4833 24.3794 23.8095C22.5337 26.5712 19.7925 27.9521 16.1558 27.9521H14.4331V0.0409994ZM-0.00439453 0.0409994H11.0288V27.9111H-0.00439453V0.0409994ZM46.856 0.0409994H48.7017C53.7329 0.0409994 56.7339 1.7431 57.7046 5.1474C58.0328 6.2685 58.1968 7.5537 58.1968 9.0029V27.9521H46.856V0.0409994ZM31.7212 9.0029C31.7212 5.9814 32.4117 3.7666 33.7925 2.3583C35.3101 0.8134 37.7847 0.0409994 41.2163 0.0409994H43.062V27.9521H31.7212V9.0029ZM62.9341 0.0409994H73.9673V27.9111H62.9341V0.0409994ZM77.3716 7.6289C77.3716 4.6074 78.1372 2.5771 79.6685 1.538C81.1177 0.5673 83.8453 0.0819998 87.8511 0.0819998H89.9224V3.958C89.9224 7.0478 89.1363 9.249 87.564 10.5615C85.9644 11.874 83.2095 12.5302 79.2994 12.5302H77.3716V7.6289ZM77.3716 14.663H79.2994C83.1548 14.663 85.9097 15.4287 87.564 16.9599C89.1363 18.4228 89.9224 20.7333 89.9224 23.8916V27.9521H87.8511C83.9273 27.9521 81.1997 27.3642 79.6685 26.1884C78.1372 24.999 77.3716 22.8662 77.3716 19.79V14.663ZM109.774 0.0409994H111.62C116.651 0.0409994 119.652 1.7431 120.623 5.1474C120.951 6.2685 121.115 7.5537 121.115 9.0029V27.9521H109.774V0.0409994ZM94.6392 9.0029C94.6392 5.9814 95.3296 3.7666 96.7105 2.3583C98.2278 0.8134 100.703 0.0409994 104.135 0.0409994H105.98V27.9521H94.6392V9.0029ZM152.184 8.7158C152.184 12.8447 150.38 15.5585 146.77 16.8574C148.794 17.6093 150.318 18.833 151.343 20.5283C152.232 22.0322 152.677 23.7822 152.677 25.7783V27.9521H140.454V0H141.52C145.13 0 147.789 0.6835 149.498 2.0507C151.289 3.4863 152.184 5.708 152.184 8.7158ZM126.016 0.0409994H137.05V27.9521H126.016V0.0409994Z" fill="#FD6A15"/>
</svg>
